<svg width="148" height="45" viewBox="0 0 148 45" fill="none" xmlns="http://www.w3.org/2000/svg">
<path d="M128.647 45.0001V20.9101H133.317L134.697 23.5999V45.0001H128.647ZM140.399 38.5564C138.154 38.5564 136.193 38.0736 134.515 37.108C132.847 36.1326 132.013 35.0193 132.013 33.768L134.697 31.3294C134.697 32.295 135.051 33.0733 135.758 33.6645C136.476 34.2458 137.31 34.5365 138.26 34.5365C139.302 34.5365 140.095 34.231 140.641 33.6202C141.187 32.9994 141.46 31.6792 141.46 29.6594C141.46 27.679 141.187 26.3784 140.641 25.7577C140.095 25.1271 139.302 24.8118 138.26 24.8118C137.31 24.8118 136.476 25.1123 135.758 25.7133C135.051 26.3045 134.697 27.0681 134.697 28.0041L132.013 25.5803C132.013 24.329 132.847 23.2157 134.515 22.2402C136.193 21.2648 138.154 20.7771 140.399 20.7771C142.966 20.7771 144.801 21.585 145.903 23.2009C147.015 24.8167 147.571 26.9597 147.571 29.6298C147.571 32.2999 147.015 34.4577 145.903 36.1031C144.801 37.7386 142.966 38.5564 140.399 38.5564Z" fill="white"/>
<path d="M108.209 45.0001V20.9101H112.692L114.017 23.5999V45.0001H108.209ZM119.49 38.5564C117.336 38.5564 115.453 38.0736 113.842 37.108C112.241 36.1326 111.44 35.0193 111.44 33.768L114.017 31.3294C114.017 32.295 114.357 33.0733 115.036 33.6645C115.725 34.2458 116.526 34.5365 117.438 34.5365C118.438 34.5365 119.199 34.231 119.723 33.6202C120.247 32.9994 120.509 31.6792 120.509 29.6594C120.509 27.679 120.247 26.3784 119.723 25.7577C119.199 25.1271 118.438 24.8118 117.438 24.8118C116.526 24.8118 115.725 25.1123 115.036 25.7133C114.357 26.3045 114.017 27.0681 114.017 28.0041L111.44 25.5803C111.44 24.329 112.241 23.2157 113.842 22.2402C115.453 21.2648 117.336 20.7771 119.49 20.7771C121.955 20.7771 123.717 21.585 124.775 23.2009C125.842 24.8167 126.376 26.9597 126.376 29.6298C126.376 32.2999 125.842 34.4577 124.775 36.1031C123.717 37.7386 121.955 38.5564 119.49 38.5564Z" fill="white"/>
<path d="M94.1321 38.9444C93.4333 38.9444 92.7395 38.9043 92.0504 38.8243C91.3614 38.7443 90.7112 38.5943 90.0998 38.3743C89.4981 38.1443 88.9643 37.8242 88.4985 37.4142C88.0424 37.0041 87.6784 36.469 87.4067 35.809C87.1447 35.1389 87.0137 34.3238 87.0137 33.3637C87.0137 32.4535 87.1447 31.6785 87.4067 31.0384C87.6687 30.3983 88.023 29.8782 88.4694 29.4782C88.9255 29.0781 89.4496 28.7681 90.0415 28.5481C90.6432 28.328 91.2789 28.178 91.9485 28.098C92.6182 28.008 93.2975 27.963 93.9865 27.963H99.3435V27.4379C99.3435 26.7378 99.2028 26.1978 98.9214 25.8177C98.6399 25.4277 98.2566 25.1576 97.7714 25.0076C97.2958 24.8476 96.7669 24.7676 96.1846 24.7676C95.6606 24.7676 95.1754 24.8426 94.7289 24.9926C94.2825 25.1426 93.8992 25.3977 93.5789 25.7577C93.2587 26.1078 93.0355 26.5828 92.9093 27.1829L87.232 25.5327C87.4067 24.6826 87.7512 23.9575 88.2656 23.3574C88.7799 22.7473 89.4253 22.2523 90.2017 21.8722C90.9878 21.4922 91.8854 21.2172 92.8947 21.0471C93.904 20.8671 94.9958 20.7771 96.1701 20.7771C98.0334 20.7771 99.6347 20.9921 100.974 21.4222C102.323 21.8522 103.361 22.5723 104.089 23.5824C104.817 24.5926 105.181 25.9827 105.181 27.753V38.7343H100.348L99.8385 36.7991C99.7123 37.0691 99.4842 37.3342 99.1543 37.5942C98.8243 37.8542 98.407 38.0842 97.9024 38.2843C97.3977 38.4843 96.8252 38.6443 96.1846 38.7643C95.5538 38.8843 94.8696 38.9444 94.1321 38.9444ZM95.4568 35.2089C95.8547 35.2089 96.2623 35.1739 96.6796 35.1039C97.1066 35.0239 97.5093 34.9139 97.8878 34.7738C98.2663 34.6238 98.5866 34.4438 98.8486 34.2338C99.1106 34.0237 99.2707 33.7837 99.329 33.5137L99.4745 31.2334H95.3549C95.0152 31.2334 94.695 31.2584 94.3941 31.3084C94.0933 31.3484 93.8312 31.4384 93.608 31.5784C93.3848 31.7085 93.2101 31.9035 93.084 32.1635C92.9675 32.4235 92.9093 32.7686 92.9093 33.1986C92.9093 33.6287 92.9821 33.9787 93.1277 34.2488C93.2732 34.5088 93.4673 34.7088 93.7099 34.8488C93.9526 34.9889 94.2243 35.0839 94.5251 35.1339C94.8357 35.1839 95.1462 35.2089 95.4568 35.2089Z" fill="white"/>
<path d="M56.7349 38.1874V20.9082H61.3087L62.6558 23.385V38.1874H56.7349ZM67.4369 38.1874V28.8193C67.4369 27.275 67.2691 26.2114 66.9336 25.6287C66.5981 25.0459 66.0603 24.7545 65.3202 24.7545C64.5208 24.7545 63.8695 25.0945 63.3663 25.7744C62.863 26.4543 62.6113 27.5324 62.6113 29.0087L59.4733 27.8432C59.4733 26.2212 60.2578 24.638 61.8268 23.0936C63.4057 21.5493 65.2363 20.7771 67.3184 20.7771C69.746 20.7771 71.3545 21.5396 72.144 23.0645C72.9433 24.5894 73.343 26.3426 73.343 28.324V38.1874H67.4369ZM78.0797 38.1874V28.8193C78.0797 27.275 77.9218 26.2114 77.606 25.6287C77.2902 25.0459 76.7623 24.7545 76.0222 24.7545C75.2228 24.7545 74.5715 25.0945 74.0683 25.7744C73.565 26.4543 73.3133 27.5324 73.3133 29.0087L70.1753 27.8432C70.1753 26.2794 70.9598 24.7108 72.5288 23.1373C74.1077 21.5638 75.9383 20.7771 78.0205 20.7771C80.448 20.7771 82.0467 21.5396 82.8164 23.0645C83.596 24.5894 83.9857 26.3426 83.9857 28.324V38.1874H78.0797Z" fill="white"/>
<path d="M47.6511 38.1873V20.8894H53.7069V38.1873H47.6511ZM47.6511 15.4783H53.7069V19.2996H47.6511V15.4783Z" fill="white"/>
<path d="M38.5676 38.1873V14.7213H44.6234V38.1873H38.5676Z" fill="white"/>
<path d="M26.6449 38.1873C22.7278 38.1873 20.0744 37.2922 18.6848 35.502C17.3053 33.7019 16.6155 31.1806 16.6155 27.9384C16.6155 24.7061 17.3053 22.1998 18.6848 20.4195C20.0744 18.6393 22.7278 17.7491 26.6449 17.7491C30.5821 17.7491 33.1751 18.6045 34.4237 20.3151C35.6723 22.0158 36.2967 23.9602 36.2967 26.1482H30.1189C30.1189 24.3182 29.8118 23.1446 29.1975 22.6275C28.5833 22.1003 27.7173 21.8368 26.5996 21.8368C25.4617 21.8368 24.5403 22.1451 23.8354 22.7617C23.1406 23.3783 22.7932 25.1039 22.7932 27.9384C22.7932 30.8027 23.1406 32.5482 23.8354 33.1747C24.5403 33.8013 25.4617 34.1146 26.5996 34.1146C27.7072 34.1146 28.5682 33.8461 29.1824 33.309C29.8068 32.762 30.1189 31.5934 30.1189 29.8032H36.2967C36.2967 31.9216 35.6723 33.851 34.4237 35.5915C33.1751 37.322 30.5821 38.1873 26.6449 38.1873Z" fill="white"/>
<path fill-rule="evenodd" clip-rule="evenodd" d="M32.9106 1.91594C33.7433 2.22438 34.1934 3.22456 33.9158 4.1499L31.7966 11.2143C31.5191 12.1396 30.619 12.6397 29.7862 12.3313C28.9535 12.0228 28.5034 11.0227 28.781 10.0973L30.9002 3.03292C31.1778 2.10758 32.0779 1.60749 32.9106 1.91594Z" fill="white"/>
<path fill-rule="evenodd" clip-rule="evenodd" d="M2.28968 16.6928C2.57609 15.7411 3.50483 15.2268 4.36407 15.544L10.9239 17.9659C11.7831 18.2832 12.2475 19.3118 11.9611 20.2636C11.6747 21.2153 10.7459 21.7296 9.88668 21.4124L3.32688 18.9905C2.46763 18.6732 2.00327 17.6445 2.28968 16.6928Z" fill="white"/>
<path fill-rule="evenodd" clip-rule="evenodd" d="M0.883402 26.4513C0.885334 25.5005 1.65769 24.7312 2.6085 24.7332L9.86738 24.7479C10.8182 24.7499 11.5874 25.5222 11.5855 26.473C11.5835 27.4238 10.8112 28.193 9.86038 28.1911L2.6015 28.1764C1.65069 28.1744 0.881469 27.4021 0.883402 26.4513Z" fill="white"/>
<path fill-rule="evenodd" clip-rule="evenodd" d="M20.316 0.665739C21.2475 0.47512 22.1572 1.07573 22.3478 2.00724L23.8031 9.11876C23.9937 10.0503 23.3931 10.9599 22.4616 11.1506C21.5301 11.3412 20.6204 10.7406 20.4298 9.80906L18.9745 2.69753C18.7839 1.76602 19.3845 0.856358 20.316 0.665739Z" fill="white"/>
<path fill-rule="evenodd" clip-rule="evenodd" d="M8.17817 6.86435C8.85565 6.19721 9.94567 6.2056 10.6128 6.88307L15.706 12.0552C16.3731 12.7327 16.3647 13.8227 15.6873 14.4899C15.0098 15.157 13.9198 15.1486 13.2526 14.4711L8.15945 9.29898C7.49231 8.62151 7.5007 7.53148 8.17817 6.86435Z" fill="white"/>
</svg>
